{
	"asset":{
		"generator":"Khronos glTF Blender I/O v4.0.44",
		"version":"2.0"
	},
	"scene":0,
	"scenes":[
		{
			"name":"Scene",
			"nodes":[
				0,
				1,
				2,
				3,
				4,
				5,
				6,
				7,
				8,
				9,
				10,
				11,
				12,
				13,
				14,
				15,
				16,
				17
			]
		}
	],
	"nodes":[
		{
			"mesh":0,
			"name":"\u7403.001",
			"translation":[
				0,
				4.119138717651367,
				0
			]
		},
		{
			"mesh":1,
			"name":"\u7acb\u65b9\u4f53",
			"scale":[
				0.15783363580703735,
				0.15783363580703735,
				0.15783363580703735
			],
			"translation":[
				0,
				4.123215675354004,
				0
			]
		},
		{
			"mesh":2,
			"name":"\u7acb\u65b9\u4f53.001",
			"scale":[
				0.009896614588797092,
				0.017350954934954643,
				0.03441978991031647
			],
			"translation":[
				0.12619012594223022,
				4.1147990226745605,
				0.060068171471357346
			]
		},
		{
			"mesh":3,
			"name":"\u7acb\u65b9\u4f53.002",
			"scale":[
				0.009896614588797092,
				0.017350954934954643,
				0.03441978991031647
			],
			"translation":[
				0.12511587142944336,
				4.078217029571533,
				0.08384642004966736
			]
		},
		{
			"mesh":4,
			"name":"\u7acb\u65b9\u4f53.003",
			"scale":[
				0.009896614588797092,
				0.017350954934954643,
				0.03441978991031647
			],
			"translation":[
				0.1381845921278,
				4.165099143981934,
				-0.09677684307098389
			]
		},
		{
			"mesh":5,
			"name":"\u7acb\u65b9\u4f53.004",
			"rotation":[
				-0.7071068286895752,
				0,
				0.7071067094802856,
				1.1520231879558196e-07
			],
			"scale":[
				0.009896614588797092,
				0.017350954934954643,
				0.03441978991031647
			],
			"translation":[
				-0.0743054747581482,
				4.135468006134033,
				0.1346907764673233
			]
		},
		{
			"mesh":6,
			"name":"\u7acb\u65b9\u4f53.005",
			"rotation":[
				-0.7071068286895752,
				0,
				0.7071067094802856,
				1.1520231879558196e-07
			],
			"scale":[
				0.009896614588797092,
				0.017350954934954643,
				0.03441978991031647
			],
			"translation":[
				-0.0980837345123291,
				4.1720499992370605,
				0.13576503098011017
			]
		},
		{
			"mesh":7,
			"name":"\u7acb\u65b9\u4f53.006",
			"rotation":[
				-0.7071068286895752,
				0,
				0.7071067094802856,
				1.1520231879558196e-07
			],
			"scale":[
				0.009896614588797092,
				0.017350954934954643,
				0.03441978991031647
			],
			"translation":[
				0.08253952860832214,
				4.08516788482666,
				0.12269632518291473
			]
		},
		{
			"mesh":8,
			"name":"\u7acb\u65b9\u4f53.007",
			"rotation":[
				0,
				-1,
				0,
				1.6292068494294654e-07
			],
			"scale":[
				0.009896614588797092,
				0.017350954934954643,
				0.03441978991031647
			],
			"translation":[
				-0.12756891548633575,
				4.1147990226745605,
				-0.05152847617864609
			]
		},
		{
			"mesh":9,
			"name":"\u7acb\u65b9\u4f53.008",
			"rotation":[
				0,
				-1,
				0,
				1.6292068494294654e-07
			],
			"scale":[
				0.009896614588797092,
				0.017350954934954643,
				0.03441978991031647
			],
			"translation":[
				-0.1264946609735489,
				4.078217029571533,
				-0.0753067284822464
			]
		},
		{
			"mesh":10,
			"name":"\u7acb\u65b9\u4f53.009",
			"rotation":[
				0,
				-1,
				0,
				1.6292068494294654e-07
			],
			"scale":[
				0.009896614588797092,
				0.017350954934954643,
				0.03441978991031647
			],
			"translation":[
				-0.13956336677074432,
				4.165099143981934,
				0.10531653463840485
			]
		},
		{
			"mesh":11,
			"name":"\u7acb\u65b9\u4f53.010",
			"rotation":[
				-0.7071068286895752,
				0,
				-0.7071068286895752,
				1.9949604279645428e-07
			],
			"scale":[
				0.009896614588797092,
				0.017350954934954643,
				0.03441978991031647
			],
			"translation":[
				0.07292668521404266,
				4.135468006134033,
				-0.13734516501426697
			]
		},
		{
			"mesh":12,
			"name":"\u7acb\u65b9\u4f53.011",
			"rotation":[
				-0.7071068286895752,
				0,
				-0.7071068286895752,
				1.9949604279645428e-07
			],
			"scale":[
				0.009896614588797092,
				0.017350954934954643,
				0.03441978991031647
			],
			"translation":[
				0.09670494496822357,
				4.1720499992370605,
				-0.13841943442821503
			]
		},
		{
			"mesh":13,
			"name":"\u7acb\u65b9\u4f53.012",
			"rotation":[
				-0.7071068286895752,
				0,
				-0.7071068286895752,
				1.9949604279645428e-07
			],
			"scale":[
				0.009896614588797092,
				0.017350954934954643,
				0.03441978991031647
			],
			"translation":[
				-0.08391831815242767,
				4.08516788482666,
				-0.1253507137298584
			]
		},
		{
			"mesh":14,
			"name":"\u5186\u67f1",
			"scale":[
				0.008570280857384205,
				0.23084160685539246,
				0.008570280857384205
			],
			"translation":[
				-0.1077861338853836,
				4.418680667877197,
				0.10779602825641632
			]
		},
		{
			"mesh":15,
			"name":"\u5186\u67f1.001",
			"scale":[
				0.008570280857384205,
				0.23084160685539246,
				0.008570280857384205
			],
			"translation":[
				-0.10902389883995056,
				4.418680667877197,
				-0.10943220555782318
			]
		},
		{
			"mesh":16,
			"name":"\u5186\u67f1.002",
			"scale":[
				0.008570280857384205,
				0.23084160685539246,
				0.008570280857384205
			],
			"translation":[
				0.10820434987545013,
				4.418680667877197,
				-0.10943220555782318
			]
		},
		{
			"mesh":17,
			"name":"\u5186\u67f1.003",
			"scale":[
				0.008570280857384205,
				0.23084160685539246,
				0.008570280857384205
			],
			"translation":[
				0.10944211483001709,
				4.418680667877197,
				0.11089043319225311
			]
		}
	],
	"materials":[
		{
			"doubleSided":true,
			"name":"\u30de\u30c6\u30ea\u30a2\u30eb.003",
			"pbrMetallicRoughness":{
				"baseColorFactor":[
					0.800782322883606,
					0.04605885222554207,
					0.098334401845932,
					1
				],
				"metallicFactor":0,
				"roughnessFactor":0.30000001192092896
			}
		},
		{
			"doubleSided":true,
			"name":"\u30de\u30c6\u30ea\u30a2\u30eb.004",
			"pbrMetallicRoughness":{
				"baseColorFactor":[
					0.800000011920929,
					0.800000011920929,
					0.800000011920929,
					1
				],
				"metallicFactor":0,
				"roughnessFactor":0.30000001192092896
			}
		},
		{
			"doubleSided":true,
			"name":"\u30de\u30c6\u30ea\u30a2\u30eb",
			"pbrMetallicRoughness":{
				"baseColorFactor":[
					0.8002434968948364,
					0.5017403364181519,
					0.22005495429039001,
					1
				],
				"metallicFactor":0,
				"roughnessFactor":0.5
			}
		},
		{
			"doubleSided":true,
			"name":"\u30de\u30c6\u30ea\u30a2\u30eb.001",
			"pbrMetallicRoughness":{
				"baseColorFactor":[
					0.4461076259613037,
					0.216748908162117,
					0.13445189595222473,
					1
				],
				"metallicFactor":0,
				"roughnessFactor":0.5
			}
		},
		{
			"doubleSided":true,
			"name":"\u30de\u30c6\u30ea\u30a2\u30eb.002",
			"pbrMetallicRoughness":{
				"baseColorFactor":[
					0.28888699412345886,
					0.28888699412345886,
					0.28888699412345886,
					1
				],
				"metallicFactor":0,
				"roughnessFactor":0.5
			}
		}
	],
	"meshes":[
		{
			"name":"\u7403.003",
			"primitives":[
				{
					"attributes":{
						"POSITION":0,
						"NORMAL":1,
						"TEXCOORD_0":2
					},
					"indices":3,
					"material":0
				},
				{
					"attributes":{
						"POSITION":4,
						"NORMAL":5,
						"TEXCOORD_0":6
					},
					"indices":3,
					"material":1
				}
			]
		},
		{
			"name":"\u7acb\u65b9\u4f53",
			"primitives":[
				{
					"attributes":{
						"POSITION":7,
						"NORMAL":8,
						"TEXCOORD_0":9
					},
					"indices":10,
					"material":2
				}
			]
		},
		{
			"name":"\u7acb\u65b9\u4f53.001",
			"primitives":[
				{
					"attributes":{
						"POSITION":11,
						"NORMAL":12,
						"TEXCOORD_0":13
					},
					"indices":14,
					"material":3
				}
			]
		},
		{
			"name":"\u7acb\u65b9\u4f53.002",
			"primitives":[
				{
					"attributes":{
						"POSITION":15,
						"NORMAL":16,
						"TEXCOORD_0":17
					},
					"indices":14,
					"material":3
				}
			]
		},
		{
			"name":"\u7acb\u65b9\u4f53.003",
			"primitives":[
				{
					"attributes":{
						"POSITION":18,
						"NORMAL":19,
						"TEXCOORD_0":20
					},
					"indices":14,
					"material":3
				}
			]
		},
		{
			"name":"\u7acb\u65b9\u4f53.004",
			"primitives":[
				{
					"attributes":{
						"POSITION":21,
						"NORMAL":22,
						"TEXCOORD_0":23
					},
					"indices":14,
					"material":3
				}
			]
		},
		{
			"name":"\u7acb\u65b9\u4f53.005",
			"primitives":[
				{
					"attributes":{
						"POSITION":24,
						"NORMAL":25,
						"TEXCOORD_0":26
					},
					"indices":14,
					"material":3
				}
			]
		},
		{
			"name":"\u7acb\u65b9\u4f53.006",
			"primitives":[
				{
					"attributes":{
						"POSITION":27,
						"NORMAL":28,
						"TEXCOORD_0":29
					},
					"indices":14,
					"material":3
				}
			]
		},
		{
			"name":"\u7acb\u65b9\u4f53.007",
			"primitives":[
				{
					"attributes":{
						"POSITION":30,
						"NORMAL":31,
						"TEXCOORD_0":32
					},
					"indices":14,
					"material":3
				}
			]
		},
		{
			"name":"\u7acb\u65b9\u4f53.008",
			"primitives":[
				{
					"attributes":{
						"POSITION":33,
						"NORMAL":34,
						"TEXCOORD_0":35
					},
					"indices":14,
					"material":3
				}
			]
		},
		{
			"name":"\u7acb\u65b9\u4f53.009",
			"primitives":[
				{
					"attributes":{
						"POSITION":36,
						"NORMAL":37,
						"TEXCOORD_0":38
					},
					"indices":14,
					"material":3
				}
			]
		},
		{
			"name":"\u7acb\u65b9\u4f53.010",
			"primitives":[
				{
					"attributes":{
						"POSITION":39,
						"NORMAL":40,
						"TEXCOORD_0":41
					},
					"indices":14,
					"material":3
				}
			]
		},
		{
			"name":"\u7acb\u65b9\u4f53.011",
			"primitives":[
				{
					"attributes":{
						"POSITION":42,
						"NORMAL":43,
						"TEXCOORD_0":44
					},
					"indices":14,
					"material":3
				}
			]
		},
		{
			"name":"\u7acb\u65b9\u4f53.012",
			"primitives":[
				{
					"attributes":{
						"POSITION":45,
						"NORMAL":46,
						"TEXCOORD_0":47
					},
					"indices":14,
					"material":3
				}
			]
		},
		{
			"name":"\u5186\u67f1",
			"primitives":[
				{
					"attributes":{
						"POSITION":48,
						"NORMAL":49,
						"TEXCOORD_0":50
					},
					"indices":51,
					"material":4
				}
			]
		},
		{
			"name":"\u5186\u67f1.001",
			"primitives":[
				{
					"attributes":{
						"POSITION":52,
						"NORMAL":53,
						"TEXCOORD_0":54
					},
					"indices":55,
					"material":4
				}
			]
		},
		{
			"name":"\u5186\u67f1.002",
			"primitives":[
				{
					"attributes":{
						"POSITION":56,
						"NORMAL":57,
						"TEXCOORD_0":58
					},
					"indices":51,
					"material":4
				}
			]
		},
		{
			"name":"\u5186\u67f1.003",
			"primitives":[
				{
					"attributes":{
						"POSITION":59,
						"NORMAL":60,
						"TEXCOORD_0":61
					},
					"indices":55,
					"material":4
				}
			]
		}
	],
	"accessors":[
		{
			"bufferView":0,
			"componentType":5126,
			"count":1688,
			"max":[
				1.001495599746704,
				2.7515876293182373,
				0.9998652338981628
			],
			"min":[
				-1.0046900510787964,
				0.5124406218528748,
				-1.0031039714813232
			],
			"type":"VEC3"
		},
		{
			"bufferView":1,
			"componentType":5126,
			"count":1688,
			"type":"VEC3"
		},
		{
			"bufferView":2,
			"componentType":5126,
			"count":1688,
			"type":"VEC2"
		},
		{
			"bufferView":3,
			"componentType":5123,
			"count":8544,
			"type":"SCALAR"
		},
		{
			"bufferView":4,
			"componentType":5126,
			"count":1688,
			"max":[
				1.0701959133148193,
				2.7515876293182373,
				1.0702077150344849
			],
			"min":[
				-1.070101261138916,
				0.5124406218528748,
				-1.0701603889465332
			],
			"type":"VEC3"
		},
		{
			"bufferView":5,
			"componentType":5126,
			"count":1688,
			"type":"VEC3"
		},
		{
			"bufferView":6,
			"componentType":5126,
			"count":1688,
			"type":"VEC2"
		},
		{
			"bufferView":7,
			"componentType":5126,
			"count":96,
			"max":[
				1.0466458797454834,
				1.0053080320358276,
				1.0466458797454834
			],
			"min":[
				-1.0466458797454834,
				-0.49605661630630493,
				-1.0466458797454834
			],
			"type":"VEC3"
		},
		{
			"bufferView":8,
			"componentType":5126,
			"count":96,
			"type":"VEC3"
		},
		{
			"bufferView":9,
			"componentType":5126,
			"count":96,
			"type":"VEC2"
		},
		{
			"bufferView":10,
			"componentType":5123,
			"count":156,
			"type":"SCALAR"
		},
		{
			"bufferView":11,
			"componentType":5126,
			"count":24,
			"max":[
				1,
				1,
				1
			],
			"min":[
				-1,
				-1,
				-1
			],
			"type":"VEC3"
		},
		{
			"bufferView":12,
			"componentType":5126,
			"count":24,
			"type":"VEC3"
		},
		{
			"bufferView":13,
			"componentType":5126,
			"count":24,
			"type":"VEC2"
		},
		{
			"bufferView":14,
			"componentType":5123,
			"count":36,
			"type":"SCALAR"
		},
		{
			"bufferView":15,
			"componentType":5126,
			"count":24,
			"max":[
				1,
				1,
				1
			],
			"min":[
				-1,
				-1,
				-1
			],
			"type":"VEC3"
		},
		{
			"bufferView":16,
			"componentType":5126,
			"count":24,
			"type":"VEC3"
		},
		{
			"bufferView":17,
			"componentType":5126,
			"count":24,
			"type":"VEC2"
		},
		{
			"bufferView":18,
			"componentType":5126,
			"count":24,
			"max":[
				1,
				1,
				1
			],
			"min":[
				-1,
				-1,
				-1
			],
			"type":"VEC3"
		},
		{
			"bufferView":19,
			"componentType":5126,
			"count":24,
			"type":"VEC3"
		},
		{
			"bufferView":20,
			"componentType":5126,
			"count":24,
			"type":"VEC2"
		},
		{
			"bufferView":21,
			"componentType":5126,
			"count":24,
			"max":[
				1,
				1,
				1
			],
			"min":[
				-1,
				-1,
				-1
			],
			"type":"VEC3"
		},
		{
			"bufferView":22,
			"componentType":5126,
			"count":24,
			"type":"VEC3"
		},
		{
			"bufferView":23,
			"componentType":5126,
			"count":24,
			"type":"VEC2"
		},
		{
			"bufferView":24,
			"componentType":5126,
			"count":24,
			"max":[
				1,
				1,
				1
			],
			"min":[
				-1,
				-1,
				-1
			],
			"type":"VEC3"
		},
		{
			"bufferView":25,
			"componentType":5126,
			"count":24,
			"type":"VEC3"
		},
		{
			"bufferView":26,
			"componentType":5126,
			"count":24,
			"type":"VEC2"
		},
		{
			"bufferView":27,
			"componentType":5126,
			"count":24,
			"max":[
				1,
				1,
				1
			],
			"min":[
				-1,
				-1,
				-1
			],
			"type":"VEC3"
		},
		{
			"bufferView":28,
			"componentType":5126,
			"count":24,
			"type":"VEC3"
		},
		{
			"bufferView":29,
			"componentType":5126,
			"count":24,
			"type":"VEC2"
		},
		{
			"bufferView":30,
			"componentType":5126,
			"count":24,
			"max":[
				1,
				1,
				1
			],
			"min":[
				-1,
				-1,
				-1
			],
			"type":"VEC3"
		},
		{
			"bufferView":31,
			"componentType":5126,
			"count":24,
			"type":"VEC3"
		},
		{
			"bufferView":32,
			"componentType":5126,
			"count":24,
			"type":"VEC2"
		},
		{
			"bufferView":33,
			"componentType":5126,
			"count":24,
			"max":[
				1,
				1,
				1
			],
			"min":[
				-1,
				-1,
				-1
			],
			"type":"VEC3"
		},
		{
			"bufferView":34,
			"componentType":5126,
			"count":24,
			"type":"VEC3"
		},
		{
			"bufferView":35,
			"componentType":5126,
			"count":24,
			"type":"VEC2"
		},
		{
			"bufferView":36,
			"componentType":5126,
			"count":24,
			"max":[
				1,
				1,
				1
			],
			"min":[
				-1,
				-1,
				-1
			],
			"type":"VEC3"
		},
		{
			"bufferView":37,
			"componentType":5126,
			"count":24,
			"type":"VEC3"
		},
		{
			"bufferView":38,
			"componentType":5126,
			"count":24,
			"type":"VEC2"
		},
		{
			"bufferView":39,
			"componentType":5126,
			"count":24,
			"max":[
				1,
				1,
				1
			],
			"min":[
				-1,
				-1,
				-1
			],
			"type":"VEC3"
		},
		{
			"bufferView":40,
			"componentType":5126,
			"count":24,
			"type":"VEC3"
		},
		{
			"bufferView":41,
			"componentType":5126,
			"count":24,
			"type":"VEC2"
		},
		{
			"bufferView":42,
			"componentType":5126,
			"count":24,
			"max":[
				1,
				1,
				1
			],
			"min":[
				-1,
				-1,
				-1
			],
			"type":"VEC3"
		},
		{
			"bufferView":43,
			"componentType":5126,
			"count":24,
			"type":"VEC3"
		},
		{
			"bufferView":44,
			"componentType":5126,
			"count":24,
			"type":"VEC2"
		},
		{
			"bufferView":45,
			"componentType":5126,
			"count":24,
			"max":[
				1,
				1,
				1
			],
			"min":[
				-1,
				-1,
				-1
			],
			"type":"VEC3"
		},
		{
			"bufferView":46,
			"componentType":5126,
			"count":24,
			"type":"VEC3"
		},
		{
			"bufferView":47,
			"componentType":5126,
			"count":24,
			"type":"VEC2"
		},
		{
			"bufferView":48,
			"componentType":5126,
			"count":192,
			"max":[
				1,
				1,
				5.395604133605957
			],
			"min":[
				-5.401445388793945,
				-1,
				-1
			],
			"type":"VEC3"
		},
		{
			"bufferView":49,
			"componentType":5126,
			"count":192,
			"type":"VEC3"
		},
		{
			"bufferView":50,
			"componentType":5126,
			"count":192,
			"type":"VEC2"
		},
		{
			"bufferView":51,
			"componentType":5123,
			"count":372,
			"type":"SCALAR"
		},
		{
			"bufferView":52,
			"componentType":5126,
			"count":192,
			"max":[
				1,
				1,
				1
			],
			"min":[
				-5.448183059692383,
				-1,
				-5.4540252685546875
			],
			"type":"VEC3"
		},
		{
			"bufferView":53,
			"componentType":5126,
			"count":192,
			"type":"VEC3"
		},
		{
			"bufferView":54,
			"componentType":5126,
			"count":192,
			"type":"VEC2"
		},
		{
			"bufferView":55,
			"componentType":5123,
			"count":372,
			"type":"SCALAR"
		},
		{
			"bufferView":56,
			"componentType":5126,
			"count":192,
			"max":[
				5.401446342468262,
				1,
				1
			],
			"min":[
				-1,
				-1,
				-5.4540252685546875
			],
			"type":"VEC3"
		},
		{
			"bufferView":57,
			"componentType":5126,
			"count":192,
			"type":"VEC3"
		},
		{
			"bufferView":58,
			"componentType":5126,
			"count":192,
			"type":"VEC2"
		},
		{
			"bufferView":59,
			"componentType":5126,
			"count":192,
			"max":[
				5.448184013366699,
				1,
				5.512446403503418
			],
			"min":[
				-1,
				-1,
				-1
			],
			"type":"VEC3"
		},
		{
			"bufferView":60,
			"componentType":5126,
			"count":192,
			"type":"VEC3"
		},
		{
			"bufferView":61,
			"componentType":5126,
			"count":192,
			"type":"VEC2"
		}
	],
	"bufferViews":[
		{
			"buffer":0,
			"byteLength":20256,
			"byteOffset":0,
			"target":34962
		},
		{
			"buffer":0,
			"byteLength":20256,
			"byteOffset":20256,
			"target":34962
		},
		{
			"buffer":0,
			"byteLength":13504,
			"byteOffset":40512,
			"target":34962
		},
		{
			"buffer":0,
			"byteLength":17088,
			"byteOffset":54016,
			"target":34963
		},
		{
			"buffer":0,
			"byteLength":20256,
			"byteOffset":71104,
			"target":34962
		},
		{
			"buffer":0,
			"byteLength":20256,
			"byteOffset":91360,
			"target":34962
		},
		{
			"buffer":0,
			"byteLength":13504,
			"byteOffset":111616,
			"target":34962
		},
		{
			"buffer":0,
			"byteLength":1152,
			"byteOffset":125120,
			"target":34962
		},
		{
			"buffer":0,
			"byteLength":1152,
			"byteOffset":126272,
			"target":34962
		},
		{
			"buffer":0,
			"byteLength":768,
			"byteOffset":127424,
			"target":34962
		},
		{
			"buffer":0,
			"byteLength":312,
			"byteOffset":128192,
			"target":34963
		},
		{
			"buffer":0,
			"byteLength":288,
			"byteOffset":128504,
			"target":34962
		},
		{
			"buffer":0,
			"byteLength":288,
			"byteOffset":128792,
			"target":34962
		},
		{
			"buffer":0,
			"byteLength":192,
			"byteOffset":129080,
			"target":34962
		},
		{
			"buffer":0,
			"byteLength":72,
			"byteOffset":129272,
			"target":34963
		},
		{
			"buffer":0,
			"byteLength":288,
			"byteOffset":129344,
			"target":34962
		},
		{
			"buffer":0,
			"byteLength":288,
			"byteOffset":129632,
			"target":34962
		},
		{
			"buffer":0,
			"byteLength":192,
			"byteOffset":129920,
			"target":34962
		},
		{
			"buffer":0,
			"byteLength":288,
			"byteOffset":130112,
			"target":34962
		},
		{
			"buffer":0,
			"byteLength":288,
			"byteOffset":130400,
			"target":34962
		},
		{
			"buffer":0,
			"byteLength":192,
			"byteOffset":130688,
			"target":34962
		},
		{
			"buffer":0,
			"byteLength":288,
			"byteOffset":130880,
			"target":34962
		},
		{
			"buffer":0,
			"byteLength":288,
			"byteOffset":131168,
			"target":34962
		},
		{
			"buffer":0,
			"byteLength":192,
			"byteOffset":131456,
			"target":34962
		},
		{
			"buffer":0,
			"byteLength":288,
			"byteOffset":131648,
			"target":34962
		},
		{
			"buffer":0,
			"byteLength":288,
			"byteOffset":131936,
			"target":34962
		},
		{
			"buffer":0,
			"byteLength":192,
			"byteOffset":132224,
			"target":34962
		},
		{
			"buffer":0,
			"byteLength":288,
			"byteOffset":132416,
			"target":34962
		},
		{
			"buffer":0,
			"byteLength":288,
			"byteOffset":132704,
			"target":34962
		},
		{
			"buffer":0,
			"byteLength":192,
			"byteOffset":132992,
			"target":34962
		},
		{
			"buffer":0,
			"byteLength":288,
			"byteOffset":133184,
			"target":34962
		},
		{
			"buffer":0,
			"byteLength":288,
			"byteOffset":133472,
			"target":34962
		},
		{
			"buffer":0,
			"byteLength":192,
			"byteOffset":133760,
			"target":34962
		},
		{
			"buffer":0,
			"byteLength":288,
			"byteOffset":133952,
			"target":34962
		},
		{
			"buffer":0,
			"byteLength":288,
			"byteOffset":134240,
			"target":34962
		},
		{
			"buffer":0,
			"byteLength":192,
			"byteOffset":134528,
			"target":34962
		},
		{
			"buffer":0,
			"byteLength":288,
			"byteOffset":134720,
			"target":34962
		},
		{
			"buffer":0,
			"byteLength":288,
			"byteOffset":135008,
			"target":34962
		},
		{
			"buffer":0,
			"byteLength":192,
			"byteOffset":135296,
			"target":34962
		},
		{
			"buffer":0,
			"byteLength":288,
			"byteOffset":135488,
			"target":34962
		},
		{
			"buffer":0,
			"byteLength":288,
			"byteOffset":135776,
			"target":34962
		},
		{
			"buffer":0,
			"byteLength":192,
			"byteOffset":136064,
			"target":34962
		},
		{
			"buffer":0,
			"byteLength":288,
			"byteOffset":136256,
			"target":34962
		},
		{
			"buffer":0,
			"byteLength":288,
			"byteOffset":136544,
			"target":34962
		},
		{
			"buffer":0,
			"byteLength":192,
			"byteOffset":136832,
			"target":34962
		},
		{
			"buffer":0,
			"byteLength":288,
			"byteOffset":137024,
			"target":34962
		},
		{
			"buffer":0,
			"byteLength":288,
			"byteOffset":137312,
			"target":34962
		},
		{
			"buffer":0,
			"byteLength":192,
			"byteOffset":137600,
			"target":34962
		},
		{
			"buffer":0,
			"byteLength":2304,
			"byteOffset":137792,
			"target":34962
		},
		{
			"buffer":0,
			"byteLength":2304,
			"byteOffset":140096,
			"target":34962
		},
		{
			"buffer":0,
			"byteLength":1536,
			"byteOffset":142400,
			"target":34962
		},
		{
			"buffer":0,
			"byteLength":744,
			"byteOffset":143936,
			"target":34963
		},
		{
			"buffer":0,
			"byteLength":2304,
			"byteOffset":144680,
			"target":34962
		},
		{
			"buffer":0,
			"byteLength":2304,
			"byteOffset":146984,
			"target":34962
		},
		{
			"buffer":0,
			"byteLength":1536,
			"byteOffset":149288,
			"target":34962
		},
		{
			"buffer":0,
			"byteLength":744,
			"byteOffset":150824,
			"target":34963
		},
		{
			"buffer":0,
			"byteLength":2304,
			"byteOffset":151568,
			"target":34962
		},
		{
			"buffer":0,
			"byteLength":2304,
			"byteOffset":153872,
			"target":34962
		},
		{
			"buffer":0,
			"byteLength":1536,
			"byteOffset":156176,
			"target":34962
		},
		{
			"buffer":0,
			"byteLength":2304,
			"byteOffset":157712,
			"target":34962
		},
		{
			"buffer":0,
			"byteLength":2304,
			"byteOffset":160016,
			"target":34962
		},
		{
			"buffer":0,
			"byteLength":1536,
			"byteOffset":162320,
			"target":34962
		}
	],
	"buffers":[
		{
			"byteLength":163856,
			"uri":"balloon.bin"
		}
	]
}
