<?xml version="1.0" standalone="no"?>
<!DOCTYPE svg PUBLIC "-//W3C//DTD SVG 20010904//EN"
 "http://www.w3.org/TR/2001/REC-SVG-20010904/DTD/svg10.dtd">
<svg version="1.0" xmlns="http://www.w3.org/2000/svg"
 width="1024.000000pt" height="1024.000000pt" viewBox="0 0 1024.000000 1024.000000"
 preserveAspectRatio="xMidYMid meet">
<metadata>
Created by potrace 1.14, written by Peter Selinger 2001-2017
</metadata>
<g transform="translate(0.000000,1024.000000) scale(0.100000,-0.100000)"
fill="#000000" stroke="none">
<path d="M0 5120 l0 -5120 5120 0 5120 0 0 5120 0 5120 -5120 0 -5120 0 0
-5120z m3400 2900 l0 -180 -355 0 -355 0 0 -1190 0 -1190 -210 0 -210 0 0
1190 0 1190 -350 0 -350 0 0 180 0 180 915 0 915 0 0 -180z m2812 -10 c56 -16
132 -81 159 -137 17 -35 23 -65 23 -113 -1 -77 -18 -123 -69 -178 -53 -60
-110 -84 -196 -84 -158 0 -269 109 -269 264 1 119 72 213 190 249 37 11 120
10 162 -1z m-1525 -801 c352 -39 616 -249 728 -579 37 -108 48 -204 42 -352
-5 -143 -19 -206 -71 -334 -141 -345 -496 -546 -904 -512 -390 32 -677 271
-779 646 -22 84 -26 117 -26 247 0 132 3 162 27 248 43 160 116 288 222 392
108 107 216 170 364 213 129 38 252 47 397 31z m3413 -15 c97 -24 173 -69 240
-141 160 -171 189 -352 190 -1185 l0 -408 -204 0 -205 0 -4 543 c-3 470 -6
552 -21 617 -41 176 -94 236 -232 261 -216 40 -468 -145 -540 -397 -15 -51
-18 -124 -22 -541 l-4 -483 -199 0 -199 0 0 860 0 860 198 -2 197 -3 3 -155 3
-155 31 55 c64 113 200 221 333 264 118 38 302 42 435 10z m-1760 -874 l0
-860 -210 0 -210 0 0 853 c0 470 3 857 7 860 3 4 98 7 210 7 l203 0 0 -860z
m-2890 -2020 l0 -180 -437 -2 -438 -3 0 -385 0 -385 338 -3 337 -2 0 -180 0
-180 -337 -2 -338 -3 -3 -617 -2 -618 -205 0 -205 0 0 1370 0 1370 645 0 645
0 0 -180z m1320 -810 c205 -19 334 -74 451 -190 80 -80 141 -182 173 -290 39
-130 57 -362 39 -509 l-6 -54 -614 5 -613 4 6 -35 c17 -91 65 -195 120 -260
37 -44 137 -97 219 -117 55 -13 101 -15 220 -11 163 6 251 24 372 75 l70 30
48 -112 c26 -61 54 -126 62 -143 l13 -33 -57 -29 c-164 -82 -413 -128 -643
-117 -357 16 -614 167 -750 441 -75 152 -95 244 -95 450 0 147 3 182 23 259
101 381 384 609 792 639 25 2 50 4 55 5 6 1 57 -3 115 -8z m1985 -17 c104 -17
229 -56 264 -82 l25 -19 -68 -148 c-37 -82 -71 -152 -75 -156 -4 -4 -24 4 -46
19 -72 49 -176 75 -316 81 -145 5 -209 -9 -258 -58 -49 -50 -49 -141 0 -204
25 -32 143 -89 304 -146 281 -100 443 -213 505 -352 33 -74 46 -185 32 -274
-25 -161 -113 -273 -274 -349 -134 -62 -221 -79 -408 -79 -119 0 -181 5 -265
22 -171 34 -365 106 -365 135 0 15 125 307 131 307 4 0 37 -18 75 -40 138 -79
300 -116 471 -107 139 7 205 36 234 103 15 33 19 56 14 82 -15 81 -66 115
-310 207 -185 69 -296 124 -383 191 -134 102 -190 201 -199 355 -10 152 26
248 126 350 161 162 440 219 786 162z m1195 -1271 c98 -48 147 -140 137 -257
-6 -75 -34 -132 -89 -179 -102 -88 -255 -85 -355 7 -61 56 -86 113 -86 197 0
79 21 131 71 183 86 90 203 107 322 49z"/>
<path d="M4440 6874 c-207 -56 -350 -284 -350 -557 1 -351 257 -605 561 -557
152 23 257 104 327 251 148 310 48 700 -213 831 -95 48 -219 60 -325 32z"/>
<path d="M4510 3136 c-158 -45 -254 -153 -295 -330 -9 -38 -15 -70 -13 -71 2
-1 193 0 426 3 l422 5 0 36 c0 54 -26 164 -49 208 -26 51 -81 99 -151 132 -48
22 -71 25 -175 28 -77 1 -136 -2 -165 -11z"/>
</g>
</svg>
