{
	"asset":{
		"generator":"Khronos glTF Blender I/O v4.0.44",
		"version":"2.0"
	},
	"scene":0,
	"scenes":[
		{
			"name":"Scene",
			"nodes":[
				0
			]
		}
	],
	"nodes":[
		{
			"mesh":0,
			"name":"Plane.004",
			"scale":[
				67.08951568603516,
				67.08951568603516,
				67.08951568603516
			],
			"translation":[
				23.504779815673828,
				0,
				33.304134368896484
			]
		}
	],
	"materials":[
		{
			"doubleSided":true,
			"name":"\u30de\u30c6\u30ea\u30a2\u30eb",
			"pbrMetallicRoughness":{
				"baseColorFactor":[
					0.6640535593032837,
					0.9028574228286743,
					1,
					1
				],
				"metallicFactor":0,
				"roughnessFactor":0.5
			}
		}
	],
	"meshes":[
		{
			"name":"Plane.005",
			"primitives":[
				{
					"attributes":{
						"POSITION":0,
						"NORMAL":1,
						"TEXCOORD_0":2
					},
					"indices":3,
					"material":0
				}
			]
		}
	],
	"accessors":[
		{
			"bufferView":0,
			"componentType":5126,
			"count":1499,
			"max":[
				2.601459503173828,
				0.23739367723464966,
				2.3302674293518066
			],
			"min":[
				-2.571227550506592,
				0,
				-2.8301069736480713
			],
			"type":"VEC3"
		},
		{
			"bufferView":1,
			"componentType":5126,
			"count":1499,
			"type":"VEC3"
		},
		{
			"bufferView":2,
			"componentType":5126,
			"count":1499,
			"type":"VEC2"
		},
		{
			"bufferView":3,
			"componentType":5123,
			"count":3114,
			"type":"SCALAR"
		}
	],
	"bufferViews":[
		{
			"buffer":0,
			"byteLength":17988,
			"byteOffset":0,
			"target":34962
		},
		{
			"buffer":0,
			"byteLength":17988,
			"byteOffset":17988,
			"target":34962
		},
		{
			"buffer":0,
			"byteLength":11992,
			"byteOffset":35976,
			"target":34962
		},
		{
			"buffer":0,
			"byteLength":6228,
			"byteOffset":47968,
			"target":34963
		}
	],
	"buffers":[
		{
			"byteLength":54196,
			"uri":"toin004.bin"
		}
	]
}
