{
	"asset":{
		"generator":"Khronos glTF Blender I/O v4.0.44",
		"version":"2.0"
	},
	"scene":0,
	"scenes":[
		{
			"name":"Scene",
			"nodes":[
				0,
				1,
				4,
				5,
				6,
				7,
				8,
				9,
				10,
				11,
				12,
				13,
				14,
				15,
				16,
				17,
				18,
				19,
				20,
				21,
				22
			]
		}
	],
	"nodes":[
		{
			"mesh":0,
			"name":"Plane.019",
			"translation":[
				125.22586822509766,
				0,
				46.489105224609375
			]
		},
		{
			"mesh":1,
			"name":"Plane.020"
		},
		{
			"name":"Empty",
			"scale":[
				1.996998906135559,
				1.996998906135559,
				1.996998906135559
			],
			"translation":[
				-2.432448387145996,
				-0.0026917129289358854,
				-1.7474431991577148
			]
		},
		{
			"name":"Empty.002",
			"scale":[
				1.0049858093261719,
				1.0049858093261719,
				1.0049858093261719
			],
			"translation":[
				-0.2792986035346985,
				0.000799604516942054,
				-0.4605179727077484
			]
		},
		{
			"children":[
				2,
				3
			],
			"name":"Empty.001",
			"rotation":[
				0,
				-0.20228655636310577,
				0,
				0.9793263673782349
			],
			"scale":[
				67.23724365234375,
				67.23725128173828,
				67.23724365234375
			],
			"translation":[
				50.378257751464844,
				0.18095536530017853,
				42.60648727416992
			]
		},
		{
			"mesh":2,
			"name":"Plane",
			"scale":[
				67.08951568603516,
				67.08951568603516,
				67.08951568603516
			],
			"translation":[
				5.680866241455078,
				7.316381931304932,
				-24.150318145751953
			]
		},
		{
			"mesh":3,
			"name":"Plane.001",
			"translation":[
				36.33781433105469,
				0.0442984513938427,
				43.72217559814453
			]
		},
		{
			"mesh":4,
			"name":"Plane.002",
			"translation":[
				39.97334671020508,
				1.0999995470046997,
				11.248013496398926
			]
		},
		{
			"mesh":5,
			"name":"Plane.003",
			"translation":[
				24.518898010253906,
				0,
				16.537139892578125
			]
		},
		{
			"mesh":6,
			"name":"Plane.005",
			"translation":[
				-29.747018814086914,
				3.0694658756256104,
				7.849451065063477
			]
		},
		{
			"mesh":7,
			"name":"Plane.006",
			"translation":[
				-51.93960952758789,
				3.014775276184082,
				19.96221923828125
			]
		},
		{
			"mesh":8,
			"name":"Plane.008",
			"translation":[
				36.45268630981445,
				4.285714626312256,
				-7.457185745239258
			]
		},
		{
			"mesh":9,
			"name":"Plane.009",
			"translation":[
				36.56404113769531,
				10.360454559326172,
				-7.8000993728637695
			]
		},
		{
			"mesh":10,
			"name":"Plane.010",
			"rotation":[
				0,
				0.7071068286895752,
				0,
				0.7071068286895752
			],
			"translation":[
				32.18210983276367,
				4.848484992980957,
				22.059398651123047
			]
		},
		{
			"mesh":11,
			"name":"Plane.007",
			"translation":[
				39.07810974121094,
				3.673643112182617,
				15.273292541503906
			]
		},
		{
			"mesh":12,
			"name":"Plane.011",
			"translation":[
				-0.06862497329711914,
				3.75,
				18.367460250854492
			]
		},
		{
			"mesh":13,
			"name":"Plane.012",
			"translation":[
				-27.25599479675293,
				8.8546781539917,
				70.92338562011719
			]
		},
		{
			"mesh":14,
			"name":"Plane.013",
			"translation":[
				-7.191347122192383,
				3.75,
				42.62047576904297
			]
		},
		{
			"mesh":15,
			"name":"Plane.014",
			"translation":[
				-5.837391376495361,
				3.75,
				52.81178283691406
			]
		},
		{
			"mesh":16,
			"name":"Plane.015",
			"translation":[
				47.28641128540039,
				6.5836381912231445,
				77.29263305664062
			]
		},
		{
			"mesh":17,
			"name":"Plane.016",
			"translation":[
				60.59820556640625,
				3.776149034500122,
				-53.48529815673828
			]
		},
		{
			"mesh":18,
			"name":"Plane.017",
			"translation":[
				147.07064819335938,
				2.892167091369629,
				-22.09486198425293
			]
		},
		{
			"mesh":19,
			"name":"Plane.018",
			"translation":[
				66.24954986572266,
				4.9807305335998535,
				7.525686740875244
			]
		}
	],
	"meshes":[
		{
			"name":"Plane.020",
			"primitives":[
				{
					"attributes":{
						"POSITION":0,
						"NORMAL":1,
						"TEXCOORD_0":2
					},
					"indices":3
				}
			]
		},
		{
			"name":"Plane.021",
			"primitives":[
				{
					"attributes":{
						"POSITION":4,
						"NORMAL":5,
						"TEXCOORD_0":6
					},
					"indices":7
				}
			]
		},
		{
			"name":"Plane",
			"primitives":[
				{
					"attributes":{
						"POSITION":8,
						"NORMAL":9,
						"TEXCOORD_0":10
					},
					"indices":11
				}
			]
		},
		{
			"name":"Plane.002",
			"primitives":[
				{
					"attributes":{
						"POSITION":12,
						"NORMAL":13,
						"TEXCOORD_0":14
					},
					"indices":15
				}
			]
		},
		{
			"name":"Plane.003",
			"primitives":[
				{
					"attributes":{
						"POSITION":16,
						"NORMAL":17,
						"TEXCOORD_0":18
					},
					"indices":19
				}
			]
		},
		{
			"name":"Plane.004",
			"primitives":[
				{
					"attributes":{
						"POSITION":20,
						"NORMAL":21,
						"TEXCOORD_0":22
					},
					"indices":23
				}
			]
		},
		{
			"name":"Plane.001",
			"primitives":[
				{
					"attributes":{
						"POSITION":24,
						"NORMAL":25,
						"TEXCOORD_0":26
					},
					"indices":27
				}
			]
		},
		{
			"name":"Plane.006",
			"primitives":[
				{
					"attributes":{
						"POSITION":28,
						"NORMAL":29,
						"TEXCOORD_0":30
					},
					"indices":31
				}
			]
		},
		{
			"name":"Plane.008",
			"primitives":[
				{
					"attributes":{
						"POSITION":32,
						"NORMAL":33,
						"TEXCOORD_0":34
					},
					"indices":35
				}
			]
		},
		{
			"name":"Plane.009",
			"primitives":[
				{
					"attributes":{
						"POSITION":36,
						"NORMAL":37,
						"TEXCOORD_0":38
					},
					"indices":39
				}
			]
		},
		{
			"name":"Plane.011",
			"primitives":[
				{
					"attributes":{
						"POSITION":40,
						"NORMAL":41,
						"TEXCOORD_0":42
					},
					"indices":43
				}
			]
		},
		{
			"name":"Plane.010",
			"primitives":[
				{
					"attributes":{
						"POSITION":44,
						"NORMAL":45,
						"TEXCOORD_0":46
					},
					"indices":47
				}
			]
		},
		{
			"name":"Plane.012",
			"primitives":[
				{
					"attributes":{
						"POSITION":48,
						"NORMAL":49,
						"TEXCOORD_0":50
					},
					"indices":51
				}
			]
		},
		{
			"name":"Plane.013",
			"primitives":[
				{
					"attributes":{
						"POSITION":52,
						"NORMAL":53,
						"TEXCOORD_0":54
					},
					"indices":55
				}
			]
		},
		{
			"name":"Plane.014",
			"primitives":[
				{
					"attributes":{
						"POSITION":56,
						"NORMAL":57,
						"TEXCOORD_0":58
					},
					"indices":59
				}
			]
		},
		{
			"name":"Plane.015",
			"primitives":[
				{
					"attributes":{
						"POSITION":60,
						"NORMAL":61,
						"TEXCOORD_0":62
					},
					"indices":63
				}
			]
		},
		{
			"name":"Plane.016",
			"primitives":[
				{
					"attributes":{
						"POSITION":64,
						"NORMAL":65,
						"TEXCOORD_0":66
					},
					"indices":67
				}
			]
		},
		{
			"name":"Plane.017",
			"primitives":[
				{
					"attributes":{
						"POSITION":68,
						"NORMAL":69,
						"TEXCOORD_0":70
					},
					"indices":59
				}
			]
		},
		{
			"name":"Plane.018",
			"primitives":[
				{
					"attributes":{
						"POSITION":71,
						"NORMAL":72,
						"TEXCOORD_0":73
					},
					"indices":74
				}
			]
		},
		{
			"name":"Plane.019",
			"primitives":[
				{
					"attributes":{
						"POSITION":75,
						"NORMAL":76,
						"TEXCOORD_0":77
					},
					"indices":78
				}
			]
		}
	],
	"accessors":[
		{
			"bufferView":0,
			"componentType":5126,
			"count":24,
			"max":[
				41.91904830932617,
				5.405640602111816,
				23.611797332763672
			],
			"min":[
				-1,
				0,
				-1
			],
			"type":"VEC3"
		},
		{
			"bufferView":1,
			"componentType":5126,
			"count":24,
			"type":"VEC3"
		},
		{
			"bufferView":2,
			"componentType":5126,
			"count":24,
			"type":"VEC2"
		},
		{
			"bufferView":3,
			"componentType":5123,
			"count":36,
			"type":"SCALAR"
		},
		{
			"bufferView":4,
			"componentType":5126,
			"count":16,
			"max":[
				165.03314208984375,
				10.490151405334473,
				104.26441192626953
			],
			"min":[
				89.7071533203125,
				-1.1920928955078125e-07,
				69.62090301513672
			],
			"type":"VEC3"
		},
		{
			"bufferView":5,
			"componentType":5126,
			"count":16,
			"type":"VEC3"
		},
		{
			"bufferView":6,
			"componentType":5126,
			"count":16,
			"type":"VEC2"
		},
		{
			"bufferView":7,
			"componentType":5123,
			"count":24,
			"type":"SCALAR"
		},
		{
			"bufferView":8,
			"componentType":5126,
			"count":549,
			"max":[
				0.6455442905426025,
				0.12833964824676514,
				0.8909905552864075
			],
			"min":[
				-0.7708150148391724,
				-0.10905402898788452,
				-0.4739797115325928
			],
			"type":"VEC3"
		},
		{
			"bufferView":9,
			"componentType":5126,
			"count":549,
			"type":"VEC3"
		},
		{
			"bufferView":10,
			"componentType":5126,
			"count":549,
			"type":"VEC2"
		},
		{
			"bufferView":11,
			"componentType":5123,
			"count":1152,
			"type":"SCALAR"
		},
		{
			"bufferView":12,
			"componentType":5126,
			"count":614,
			"max":[
				153.28125,
				0.04429839923977852,
				138.69891357421875
			],
			"min":[
				-182.3658447265625,
				-0.0442984513938427,
				-198.75733947753906
			],
			"type":"VEC3"
		},
		{
			"bufferView":13,
			"componentType":5126,
			"count":614,
			"type":"VEC3"
		},
		{
			"bufferView":14,
			"componentType":5126,
			"count":614,
			"type":"VEC2"
		},
		{
			"bufferView":15,
			"componentType":5123,
			"count":1380,
			"type":"SCALAR"
		},
		{
			"bufferView":16,
			"componentType":5126,
			"count":250,
			"max":[
				128.75607299804688,
				1.1000005006790161,
				104.30897521972656
			],
			"min":[
				-96.51350402832031,
				-1.0999995470046997,
				-73.6993408203125
			],
			"type":"VEC3"
		},
		{
			"bufferView":17,
			"componentType":5126,
			"count":250,
			"type":"VEC3"
		},
		{
			"bufferView":18,
			"componentType":5126,
			"count":250,
			"type":"VEC2"
		},
		{
			"bufferView":19,
			"componentType":5123,
			"count":492,
			"type":"SCALAR"
		},
		{
			"bufferView":20,
			"componentType":5126,
			"count":4,
			"max":[
				173.51651000976562,
				0,
				173.10350036621094
			],
			"min":[
				-173.51651000976562,
				0,
				-173.10350036621094
			],
			"type":"VEC3"
		},
		{
			"bufferView":21,
			"componentType":5126,
			"count":4,
			"type":"VEC3"
		},
		{
			"bufferView":22,
			"componentType":5126,
			"count":4,
			"type":"VEC2"
		},
		{
			"bufferView":23,
			"componentType":5123,
			"count":6,
			"type":"SCALAR"
		},
		{
			"bufferView":24,
			"componentType":5126,
			"count":48,
			"max":[
				16.908313751220703,
				0.39845967292785645,
				16.071088790893555
			],
			"min":[
				-16.633153915405273,
				-0.2812659740447998,
				-21.767518997192383
			],
			"type":"VEC3"
		},
		{
			"bufferView":25,
			"componentType":5126,
			"count":48,
			"type":"VEC3"
		},
		{
			"bufferView":26,
			"componentType":5126,
			"count":48,
			"type":"VEC2"
		},
		{
			"bufferView":27,
			"componentType":5123,
			"count":84,
			"type":"SCALAR"
		},
		{
			"bufferView":28,
			"componentType":5126,
			"count":8,
			"max":[
				3.044921398162842,
				0.45315027236938477,
				2.2862091064453125
			],
			"min":[
				-3.044922351837158,
				-0.22657537460327148,
				-2.286212921142578
			],
			"type":"VEC3"
		},
		{
			"bufferView":29,
			"componentType":5126,
			"count":8,
			"type":"VEC3"
		},
		{
			"bufferView":30,
			"componentType":5126,
			"count":8,
			"type":"VEC2"
		},
		{
			"bufferView":31,
			"componentType":5123,
			"count":12,
			"type":"SCALAR"
		},
		{
			"bufferView":32,
			"componentType":5126,
			"count":44,
			"max":[
				1.670302152633667,
				3.7142844200134277,
				2.656038761138916
			],
			"min":[
				-1.4475951194763184,
				-4.285714626312256,
				-3.3418655395507812
			],
			"type":"VEC3"
		},
		{
			"bufferView":33,
			"componentType":5126,
			"count":44,
			"type":"VEC3"
		},
		{
			"bufferView":34,
			"componentType":5126,
			"count":44,
			"type":"VEC2"
		},
		{
			"bufferView":35,
			"componentType":5123,
			"count":78,
			"type":"SCALAR"
		},
		{
			"bufferView":36,
			"componentType":5126,
			"count":4,
			"max":[
				1.5589485168457031,
				0,
				2.9989519119262695
			],
			"min":[
				-1.5589485168457031,
				0,
				-2.9989519119262695
			],
			"type":"VEC3"
		},
		{
			"bufferView":37,
			"componentType":5126,
			"count":4,
			"type":"VEC3"
		},
		{
			"bufferView":38,
			"componentType":5126,
			"count":4,
			"type":"VEC2"
		},
		{
			"bufferView":39,
			"componentType":5123,
			"count":6,
			"type":"SCALAR"
		},
		{
			"bufferView":40,
			"componentType":5126,
			"count":49,
			"max":[
				1.6288816928863525,
				3.1515140533447266,
				4.781531810760498
			],
			"min":[
				-2.642906665802002,
				-4.848484992980957,
				-4.09297513961792
			],
			"type":"VEC3"
		},
		{
			"bufferView":41,
			"componentType":5126,
			"count":49,
			"type":"VEC3"
		},
		{
			"bufferView":42,
			"componentType":5126,
			"count":49,
			"type":"VEC2"
		},
		{
			"bufferView":43,
			"componentType":5123,
			"count":96,
			"type":"SCALAR"
		},
		{
			"bufferView":44,
			"componentType":5126,
			"count":44,
			"max":[
				6.269136428833008,
				3.673643112182617,
				3.564939498901367
			],
			"min":[
				-11.487768173217773,
				-3.673643112182617,
				-3.94659423828125
			],
			"type":"VEC3"
		},
		{
			"bufferView":45,
			"componentType":5126,
			"count":44,
			"type":"VEC3"
		},
		{
			"bufferView":46,
			"componentType":5126,
			"count":44,
			"type":"VEC2"
		},
		{
			"bufferView":47,
			"componentType":5123,
			"count":84,
			"type":"SCALAR"
		},
		{
			"bufferView":48,
			"componentType":5126,
			"count":56,
			"max":[
				10.150646209716797,
				3.75,
				4.941556453704834
			],
			"min":[
				-6.063148021697998,
				-3.75,
				-4.266869068145752
			],
			"type":"VEC3"
		},
		{
			"bufferView":49,
			"componentType":5126,
			"count":56,
			"type":"VEC3"
		},
		{
			"bufferView":50,
			"componentType":5126,
			"count":56,
			"type":"VEC2"
		},
		{
			"bufferView":51,
			"componentType":5123,
			"count":108,
			"type":"SCALAR"
		},
		{
			"bufferView":52,
			"componentType":5126,
			"count":24,
			"max":[
				24.282564163208008,
				8.8546781539917,
				14.914970397949219
			],
			"min":[
				-24.282564163208008,
				-8.8546781539917,
				-14.914970397949219
			],
			"type":"VEC3"
		},
		{
			"bufferView":53,
			"componentType":5126,
			"count":24,
			"type":"VEC3"
		},
		{
			"bufferView":54,
			"componentType":5126,
			"count":24,
			"type":"VEC2"
		},
		{
			"bufferView":55,
			"componentType":5123,
			"count":36,
			"type":"SCALAR"
		},
		{
			"bufferView":56,
			"componentType":5126,
			"count":24,
			"max":[
				3.135037422180176,
				3.75,
				6.9946722984313965
			],
			"min":[
				-3.135037422180176,
				-3.75,
				-6.9946722984313965
			],
			"type":"VEC3"
		},
		{
			"bufferView":57,
			"componentType":5126,
			"count":24,
			"type":"VEC3"
		},
		{
			"bufferView":58,
			"componentType":5126,
			"count":24,
			"type":"VEC2"
		},
		{
			"bufferView":59,
			"componentType":5123,
			"count":36,
			"type":"SCALAR"
		},
		{
			"bufferView":60,
			"componentType":5126,
			"count":24,
			"max":[
				3.1566615104675293,
				3.75,
				3.1966323852539062
			],
			"min":[
				-3.1566615104675293,
				-3.75,
				-3.1966333389282227
			],
			"type":"VEC3"
		},
		{
			"bufferView":61,
			"componentType":5126,
			"count":24,
			"type":"VEC3"
		},
		{
			"bufferView":62,
			"componentType":5126,
			"count":24,
			"type":"VEC2"
		},
		{
			"bufferView":63,
			"componentType":5123,
			"count":36,
			"type":"SCALAR"
		},
		{
			"bufferView":64,
			"componentType":5126,
			"count":24,
			"max":[
				38.66886520385742,
				8.103826522827148,
				8.09390640258789
			],
			"min":[
				-38.66886520385742,
				-6.5836381912231445,
				-8.09390640258789
			],
			"type":"VEC3"
		},
		{
			"bufferView":65,
			"componentType":5126,
			"count":24,
			"type":"VEC3"
		},
		{
			"bufferView":66,
			"componentType":5126,
			"count":24,
			"type":"VEC2"
		},
		{
			"bufferView":67,
			"componentType":5123,
			"count":36,
			"type":"SCALAR"
		},
		{
			"bufferView":68,
			"componentType":5126,
			"count":24,
			"max":[
				7.396207809448242,
				3.776149034500122,
				2.8731765747070312
			],
			"min":[
				-7.396207809448242,
				-3.776149034500122,
				-2.8731765747070312
			],
			"type":"VEC3"
		},
		{
			"bufferView":69,
			"componentType":5126,
			"count":24,
			"type":"VEC3"
		},
		{
			"bufferView":70,
			"componentType":5126,
			"count":24,
			"type":"VEC2"
		},
		{
			"bufferView":71,
			"componentType":5126,
			"count":16,
			"max":[
				19.11444091796875,
				3.6630759239196777,
				68.0865707397461
			],
			"min":[
				-29.087745666503906,
				-2.892167091369629,
				-39.76624298095703
			],
			"type":"VEC3"
		},
		{
			"bufferView":72,
			"componentType":5126,
			"count":16,
			"type":"VEC3"
		},
		{
			"bufferView":73,
			"componentType":5126,
			"count":16,
			"type":"VEC2"
		},
		{
			"bufferView":74,
			"componentType":5123,
			"count":24,
			"type":"SCALAR"
		},
		{
			"bufferView":75,
			"componentType":5126,
			"count":36,
			"max":[
				53.01060485839844,
				4.98073148727417,
				35.65219497680664
			],
			"min":[
				-12.539543151855469,
				-4.9807305335998535,
				-51.472442626953125
			],
			"type":"VEC3"
		},
		{
			"bufferView":76,
			"componentType":5126,
			"count":36,
			"type":"VEC3"
		},
		{
			"bufferView":77,
			"componentType":5126,
			"count":36,
			"type":"VEC2"
		},
		{
			"bufferView":78,
			"componentType":5123,
			"count":96,
			"type":"SCALAR"
		}
	],
	"bufferViews":[
		{
			"buffer":0,
			"byteLength":288,
			"byteOffset":0,
			"target":34962
		},
		{
			"buffer":0,
			"byteLength":288,
			"byteOffset":288,
			"target":34962
		},
		{
			"buffer":0,
			"byteLength":192,
			"byteOffset":576,
			"target":34962
		},
		{
			"buffer":0,
			"byteLength":72,
			"byteOffset":768,
			"target":34963
		},
		{
			"buffer":0,
			"byteLength":192,
			"byteOffset":840,
			"target":34962
		},
		{
			"buffer":0,
			"byteLength":192,
			"byteOffset":1032,
			"target":34962
		},
		{
			"buffer":0,
			"byteLength":128,
			"byteOffset":1224,
			"target":34962
		},
		{
			"buffer":0,
			"byteLength":48,
			"byteOffset":1352,
			"target":34963
		},
		{
			"buffer":0,
			"byteLength":6588,
			"byteOffset":1400,
			"target":34962
		},
		{
			"buffer":0,
			"byteLength":6588,
			"byteOffset":7988,
			"target":34962
		},
		{
			"buffer":0,
			"byteLength":4392,
			"byteOffset":14576,
			"target":34962
		},
		{
			"buffer":0,
			"byteLength":2304,
			"byteOffset":18968,
			"target":34963
		},
		{
			"buffer":0,
			"byteLength":7368,
			"byteOffset":21272,
			"target":34962
		},
		{
			"buffer":0,
			"byteLength":7368,
			"byteOffset":28640,
			"target":34962
		},
		{
			"buffer":0,
			"byteLength":4912,
			"byteOffset":36008,
			"target":34962
		},
		{
			"buffer":0,
			"byteLength":2760,
			"byteOffset":40920,
			"target":34963
		},
		{
			"buffer":0,
			"byteLength":3000,
			"byteOffset":43680,
			"target":34962
		},
		{
			"buffer":0,
			"byteLength":3000,
			"byteOffset":46680,
			"target":34962
		},
		{
			"buffer":0,
			"byteLength":2000,
			"byteOffset":49680,
			"target":34962
		},
		{
			"buffer":0,
			"byteLength":984,
			"byteOffset":51680,
			"target":34963
		},
		{
			"buffer":0,
			"byteLength":48,
			"byteOffset":52664,
			"target":34962
		},
		{
			"buffer":0,
			"byteLength":48,
			"byteOffset":52712,
			"target":34962
		},
		{
			"buffer":0,
			"byteLength":32,
			"byteOffset":52760,
			"target":34962
		},
		{
			"buffer":0,
			"byteLength":12,
			"byteOffset":52792,
			"target":34963
		},
		{
			"buffer":0,
			"byteLength":576,
			"byteOffset":52804,
			"target":34962
		},
		{
			"buffer":0,
			"byteLength":576,
			"byteOffset":53380,
			"target":34962
		},
		{
			"buffer":0,
			"byteLength":384,
			"byteOffset":53956,
			"target":34962
		},
		{
			"buffer":0,
			"byteLength":168,
			"byteOffset":54340,
			"target":34963
		},
		{
			"buffer":0,
			"byteLength":96,
			"byteOffset":54508,
			"target":34962
		},
		{
			"buffer":0,
			"byteLength":96,
			"byteOffset":54604,
			"target":34962
		},
		{
			"buffer":0,
			"byteLength":64,
			"byteOffset":54700,
			"target":34962
		},
		{
			"buffer":0,
			"byteLength":24,
			"byteOffset":54764,
			"target":34963
		},
		{
			"buffer":0,
			"byteLength":528,
			"byteOffset":54788,
			"target":34962
		},
		{
			"buffer":0,
			"byteLength":528,
			"byteOffset":55316,
			"target":34962
		},
		{
			"buffer":0,
			"byteLength":352,
			"byteOffset":55844,
			"target":34962
		},
		{
			"buffer":0,
			"byteLength":156,
			"byteOffset":56196,
			"target":34963
		},
		{
			"buffer":0,
			"byteLength":48,
			"byteOffset":56352,
			"target":34962
		},
		{
			"buffer":0,
			"byteLength":48,
			"byteOffset":56400,
			"target":34962
		},
		{
			"buffer":0,
			"byteLength":32,
			"byteOffset":56448,
			"target":34962
		},
		{
			"buffer":0,
			"byteLength":12,
			"byteOffset":56480,
			"target":34963
		},
		{
			"buffer":0,
			"byteLength":588,
			"byteOffset":56492,
			"target":34962
		},
		{
			"buffer":0,
			"byteLength":588,
			"byteOffset":57080,
			"target":34962
		},
		{
			"buffer":0,
			"byteLength":392,
			"byteOffset":57668,
			"target":34962
		},
		{
			"buffer":0,
			"byteLength":192,
			"byteOffset":58060,
			"target":34963
		},
		{
			"buffer":0,
			"byteLength":528,
			"byteOffset":58252,
			"target":34962
		},
		{
			"buffer":0,
			"byteLength":528,
			"byteOffset":58780,
			"target":34962
		},
		{
			"buffer":0,
			"byteLength":352,
			"byteOffset":59308,
			"target":34962
		},
		{
			"buffer":0,
			"byteLength":168,
			"byteOffset":59660,
			"target":34963
		},
		{
			"buffer":0,
			"byteLength":672,
			"byteOffset":59828,
			"target":34962
		},
		{
			"buffer":0,
			"byteLength":672,
			"byteOffset":60500,
			"target":34962
		},
		{
			"buffer":0,
			"byteLength":448,
			"byteOffset":61172,
			"target":34962
		},
		{
			"buffer":0,
			"byteLength":216,
			"byteOffset":61620,
			"target":34963
		},
		{
			"buffer":0,
			"byteLength":288,
			"byteOffset":61836,
			"target":34962
		},
		{
			"buffer":0,
			"byteLength":288,
			"byteOffset":62124,
			"target":34962
		},
		{
			"buffer":0,
			"byteLength":192,
			"byteOffset":62412,
			"target":34962
		},
		{
			"buffer":0,
			"byteLength":72,
			"byteOffset":62604,
			"target":34963
		},
		{
			"buffer":0,
			"byteLength":288,
			"byteOffset":62676,
			"target":34962
		},
		{
			"buffer":0,
			"byteLength":288,
			"byteOffset":62964,
			"target":34962
		},
		{
			"buffer":0,
			"byteLength":192,
			"byteOffset":63252,
			"target":34962
		},
		{
			"buffer":0,
			"byteLength":72,
			"byteOffset":63444,
			"target":34963
		},
		{
			"buffer":0,
			"byteLength":288,
			"byteOffset":63516,
			"target":34962
		},
		{
			"buffer":0,
			"byteLength":288,
			"byteOffset":63804,
			"target":34962
		},
		{
			"buffer":0,
			"byteLength":192,
			"byteOffset":64092,
			"target":34962
		},
		{
			"buffer":0,
			"byteLength":72,
			"byteOffset":64284,
			"target":34963
		},
		{
			"buffer":0,
			"byteLength":288,
			"byteOffset":64356,
			"target":34962
		},
		{
			"buffer":0,
			"byteLength":288,
			"byteOffset":64644,
			"target":34962
		},
		{
			"buffer":0,
			"byteLength":192,
			"byteOffset":64932,
			"target":34962
		},
		{
			"buffer":0,
			"byteLength":72,
			"byteOffset":65124,
			"target":34963
		},
		{
			"buffer":0,
			"byteLength":288,
			"byteOffset":65196,
			"target":34962
		},
		{
			"buffer":0,
			"byteLength":288,
			"byteOffset":65484,
			"target":34962
		},
		{
			"buffer":0,
			"byteLength":192,
			"byteOffset":65772,
			"target":34962
		},
		{
			"buffer":0,
			"byteLength":192,
			"byteOffset":65964,
			"target":34962
		},
		{
			"buffer":0,
			"byteLength":192,
			"byteOffset":66156,
			"target":34962
		},
		{
			"buffer":0,
			"byteLength":128,
			"byteOffset":66348,
			"target":34962
		},
		{
			"buffer":0,
			"byteLength":48,
			"byteOffset":66476,
			"target":34963
		},
		{
			"buffer":0,
			"byteLength":432,
			"byteOffset":66524,
			"target":34962
		},
		{
			"buffer":0,
			"byteLength":432,
			"byteOffset":66956,
			"target":34962
		},
		{
			"buffer":0,
			"byteLength":288,
			"byteOffset":67388,
			"target":34962
		},
		{
			"buffer":0,
			"byteLength":192,
			"byteOffset":67676,
			"target":34963
		}
	],
	"buffers":[
		{
			"byteLength":67868,
			"uri":"toin005.bin"
		}
	]
}
