{
	"asset":{
		"generator":"Khronos glTF Blender I/O v4.0.44",
		"version":"2.0"
	},
	"scene":0,
	"scenes":[
		{
			"name":"Scene",
			"nodes":[
				2,
				3,
				4,
				5,
				6,
				7
			]
		}
	],
	"nodes":[
		{
			"name":"Empty",
			"scale":[
				1.996998906135559,
				1.996998906135559,
				1.996998906135559
			],
			"translation":[
				-2.432448387145996,
				-0.0026917129289358854,
				-1.7474431991577148
			]
		},
		{
			"name":"Empty.002",
			"scale":[
				1.0049858093261719,
				1.0049858093261719,
				1.0049858093261719
			],
			"translation":[
				-0.2792986035346985,
				0.000799604516942054,
				-0.4605179727077484
			]
		},
		{
			"children":[
				0,
				1
			],
			"name":"Empty.001",
			"rotation":[
				0,
				-0.20228655636310577,
				0,
				0.9793263673782349
			],
			"scale":[
				67.23724365234375,
				67.23725128173828,
				67.23724365234375
			],
			"translation":[
				50.378257751464844,
				0.18095536530017853,
				42.60648727416992
			]
		},
		{
			"mesh":0,
			"name":"Plane",
			"scale":[
				67.08951568603516,
				67.08951568603516,
				67.08951568603516
			],
			"translation":[
				23.504779815673828,
				0,
				33.304134368896484
			]
		},
		{
			"mesh":1,
			"name":"Plane.001",
			"translation":[
				-1.9037456512451172,
				0,
				-28.23710060119629
			]
		},
		{
			"mesh":2,
			"name":"Plane.002"
		},
		{
			"mesh":3,
			"name":"Plane.003"
		},
		{
			"mesh":4,
			"name":"Plane.004",
			"scale":[
				67.08951568603516,
				67.08951568603516,
				67.08951568603516
			],
			"translation":[
				23.504779815673828,
				0,
				33.304134368896484
			]
		}
	],
	"materials":[
		{
			"doubleSided":true,
			"name":"\u30de\u30c6\u30ea\u30a2\u30eb",
			"pbrMetallicRoughness":{
				"baseColorFactor":[
					0.6640535593032837,
					0.9028574228286743,
					1,
					1
				],
				"metallicFactor":0,
				"roughnessFactor":0.5
			}
		}
	],
	"meshes":[
		{
			"name":"Plane",
			"primitives":[
				{
					"attributes":{
						"POSITION":0,
						"NORMAL":1,
						"TEXCOORD_0":2
					},
					"indices":3
				}
			]
		},
		{
			"name":"Plane.002",
			"primitives":[
				{
					"attributes":{
						"POSITION":4,
						"NORMAL":5,
						"TEXCOORD_0":6
					},
					"indices":7
				}
			]
		},
		{
			"name":"Plane.003",
			"primitives":[
				{
					"attributes":{
						"POSITION":8,
						"NORMAL":9,
						"TEXCOORD_0":10
					},
					"indices":11
				}
			]
		},
		{
			"name":"Plane.004",
			"primitives":[
				{
					"attributes":{
						"POSITION":12,
						"NORMAL":13,
						"TEXCOORD_0":14
					},
					"indices":15
				}
			]
		},
		{
			"name":"Plane.005",
			"primitives":[
				{
					"attributes":{
						"POSITION":16,
						"NORMAL":17,
						"TEXCOORD_0":18
					},
					"indices":19,
					"material":0
				}
			]
		}
	],
	"accessors":[
		{
			"bufferView":0,
			"componentType":5126,
			"count":597,
			"max":[
				0.3798706829547882,
				0.23739367723464966,
				0.03460555523633957
			],
			"min":[
				-1.036488652229309,
				0,
				-1.33036470413208
			],
			"type":"VEC3"
		},
		{
			"bufferView":1,
			"componentType":5126,
			"count":597,
			"type":"VEC3"
		},
		{
			"bufferView":2,
			"componentType":5126,
			"count":597,
			"type":"VEC2"
		},
		{
			"bufferView":3,
			"componentType":5123,
			"count":1164,
			"type":"SCALAR"
		},
		{
			"bufferView":4,
			"componentType":5126,
			"count":614,
			"max":[
				191.52281188964844,
				0.08859685063362122,
				210.65818786621094
			],
			"min":[
				-144.12428283691406,
				0,
				-126.79806518554688
			],
			"type":"VEC3"
		},
		{
			"bufferView":5,
			"componentType":5126,
			"count":614,
			"type":"VEC3"
		},
		{
			"bufferView":6,
			"componentType":5126,
			"count":614,
			"type":"VEC2"
		},
		{
			"bufferView":7,
			"componentType":5123,
			"count":1380,
			"type":"SCALAR"
		},
		{
			"bufferView":8,
			"componentType":5126,
			"count":284,
			"max":[
				168.7294158935547,
				2.200000047683716,
				115.55699157714844
			],
			"min":[
				-56.5401611328125,
				0,
				-99.68167114257812
			],
			"type":"VEC3"
		},
		{
			"bufferView":9,
			"componentType":5126,
			"count":284,
			"type":"VEC3"
		},
		{
			"bufferView":10,
			"componentType":5126,
			"count":284,
			"type":"VEC2"
		},
		{
			"bufferView":11,
			"componentType":5123,
			"count":564,
			"type":"SCALAR"
		},
		{
			"bufferView":12,
			"componentType":5126,
			"count":4,
			"max":[
				198.03541564941406,
				0,
				189.64064025878906
			],
			"min":[
				-148.99761962890625,
				0,
				-156.5663604736328
			],
			"type":"VEC3"
		},
		{
			"bufferView":13,
			"componentType":5126,
			"count":4,
			"type":"VEC3"
		},
		{
			"bufferView":14,
			"componentType":5126,
			"count":4,
			"type":"VEC2"
		},
		{
			"bufferView":15,
			"componentType":5123,
			"count":6,
			"type":"SCALAR"
		},
		{
			"bufferView":16,
			"componentType":5126,
			"count":1499,
			"max":[
				2.601459503173828,
				0.23739367723464966,
				2.3302674293518066
			],
			"min":[
				-2.571227550506592,
				0,
				-2.8301069736480713
			],
			"type":"VEC3"
		},
		{
			"bufferView":17,
			"componentType":5126,
			"count":1499,
			"type":"VEC3"
		},
		{
			"bufferView":18,
			"componentType":5126,
			"count":1499,
			"type":"VEC2"
		},
		{
			"bufferView":19,
			"componentType":5123,
			"count":3114,
			"type":"SCALAR"
		}
	],
	"bufferViews":[
		{
			"buffer":0,
			"byteLength":7164,
			"byteOffset":0,
			"target":34962
		},
		{
			"buffer":0,
			"byteLength":7164,
			"byteOffset":7164,
			"target":34962
		},
		{
			"buffer":0,
			"byteLength":4776,
			"byteOffset":14328,
			"target":34962
		},
		{
			"buffer":0,
			"byteLength":2328,
			"byteOffset":19104,
			"target":34963
		},
		{
			"buffer":0,
			"byteLength":7368,
			"byteOffset":21432,
			"target":34962
		},
		{
			"buffer":0,
			"byteLength":7368,
			"byteOffset":28800,
			"target":34962
		},
		{
			"buffer":0,
			"byteLength":4912,
			"byteOffset":36168,
			"target":34962
		},
		{
			"buffer":0,
			"byteLength":2760,
			"byteOffset":41080,
			"target":34963
		},
		{
			"buffer":0,
			"byteLength":3408,
			"byteOffset":43840,
			"target":34962
		},
		{
			"buffer":0,
			"byteLength":3408,
			"byteOffset":47248,
			"target":34962
		},
		{
			"buffer":0,
			"byteLength":2272,
			"byteOffset":50656,
			"target":34962
		},
		{
			"buffer":0,
			"byteLength":1128,
			"byteOffset":52928,
			"target":34963
		},
		{
			"buffer":0,
			"byteLength":48,
			"byteOffset":54056,
			"target":34962
		},
		{
			"buffer":0,
			"byteLength":48,
			"byteOffset":54104,
			"target":34962
		},
		{
			"buffer":0,
			"byteLength":32,
			"byteOffset":54152,
			"target":34962
		},
		{
			"buffer":0,
			"byteLength":12,
			"byteOffset":54184,
			"target":34963
		},
		{
			"buffer":0,
			"byteLength":17988,
			"byteOffset":54196,
			"target":34962
		},
		{
			"buffer":0,
			"byteLength":17988,
			"byteOffset":72184,
			"target":34962
		},
		{
			"buffer":0,
			"byteLength":11992,
			"byteOffset":90172,
			"target":34962
		},
		{
			"buffer":0,
			"byteLength":6228,
			"byteOffset":102164,
			"target":34963
		}
	],
	"buffers":[
		{
			"byteLength":108392,
			"uri":"toin.bin"
		}
	]
}
